<svg xmlns="http://www.w3.org/2000/svg" xmlns:xlink="http://www.w3.org/1999/xlink" viewBox="0 0 24 24"><path d="M1.8125 0C0.8125 0 0 0.8125 0 1.8125L0 22.1875C0 23.1875 0.8125 24 1.8125 24L22.1875 24C23.1875 24 24 23.1875 24 22.1875L24 1.8125C24 0.8125 23.1875 0 22.1875 0 Z M 12 6C15.3125 6 18 8.6875 18 12C18 15.3125 15.3125 18 12 18C8.6875 18 6 15.3125 6 12C6 8.6875 8.6875 6 12 6 Z M 12 8C11.359375 8 10.757813 8.167969 10.21875 8.4375C10.589844 8.710938 10.84375 9.160156 10.84375 9.65625C10.84375 10.484375 10.171875 11.15625 9.34375 11.15625C8.910156 11.15625 8.523438 10.949219 8.25 10.65625C8.101563 11.074219 8 11.527344 8 12C8 14.210938 9.789063 16 12 16C14.210938 16 16 14.210938 16 12C16 9.789063 14.210938 8 12 8Z"/></svg>