<svg xmlns="http://www.w3.org/2000/svg" xmlns:xlink="http://www.w3.org/1999/xlink" viewBox="0 0 30 30"><path d="M15 3C8.3844276 3 3 8.3844276 3 15C3 21.615572 8.3844276 27 15 27C21.615572 27 27 21.615572 27 15C27 8.3844276 21.615572 3 15 3 z M 15 5C16.053935 5 17.068552 5.1644589 18.021484 5.4648438L18.005859 10.935547L17.125 10.056641L17.068359 10L12.435547 5.3398438C13.254253 5.1231947 14.111383 5 15 5 z M 10.408203 6.1367188L14.248047 10L13 10L6.34375 10C7.296499 8.350601 8.7143941 7.0169408 10.408203 6.1367188 z M 20.019531 6.3554688C21.65289 7.3039447 22.989828 8.69737 23.865234 10.376953L20 14.240234L20 13.007812L20.019531 6.3554688 z M 5.4570312 12L10.929688 12L10.097656 12.833984 A 1.0001 1.0001 0 0 0 10.048828 12.880859L10 12.929688L5.3476562 17.580078C5.1289168 16.756116 5 15.894093 5 15C5 13.954155 5.161063 12.946564 5.4570312 12 z M 24.652344 12.417969C24.871396 13.242478 25 14.105246 25 15C25 16.045845 24.838937 17.053436 24.542969 18L19.070312 18L19.916016 17.152344 A 1.0005843 1.0005843 0 0 0 19.947266 17.123047L24.652344 12.417969 z M 10 15.757812L10 17.070312L10 23.65625C8.3574382 22.707451 7.011735 21.309725 6.1328125 19.623047L10 15.757812 z M 12 19.070312L12.828125 19.898438 A 1.0001 1.0001 0 0 0 12.876953 19.949219L17.580078 24.652344C16.756116 24.871083 15.894093 25 15 25C13.954155 25 12.946564 24.838937 12 24.542969L12 19.070312 z M 15.755859 20L17.070312 20L23.65625 20C22.707158 21.643067 21.308467 22.988282 19.621094 23.867188L15.755859 20 z"/></svg>