<svg xmlns="http://www.w3.org/2000/svg" xmlns:xlink="http://www.w3.org/1999/xlink" viewBox="0 0 30 30"><path d="M16 3C13.791 3 12 4.791 12 7C12 9.209 13.791 11 16 11C18.209 11 20 9.209 20 7C20 4.791 18.209 3 16 3 z M 6 5C4.343 5 3 6.343 3 8C3 9.657 4.343 11 6 11C7.657 11 9 9.657 9 8C9 6.343 7.657 5 6 5 z M 4 13C2.895 13 2 13.895 2 15L2 25C2 26.105 2.895 27 4 27L18 27C19.105 27 20 26.105 20 25L20 15C20 13.895 19.105 13 18 13L4 13 z M 27 14 A 1 1 0 0 0 26.443359 14.169922L22 17L22 20L22 23L26.429688 25.822266 A 1 1 0 0 0 26.478516 25.851562 A 1 1 0 0 0 27 26 A 1 1 0 0 0 28 25L28 20L28 15 A 1 1 0 0 0 27 14 z"/></svg>