<svg xmlns="http://www.w3.org/2000/svg" xmlns:xlink="http://www.w3.org/1999/xlink" viewBox="0 0 50 50"><path d="M24.982422 11C21.187422 11.062 14.665906 11.245156 13.628906 11.785156C11.638906 12.827156 10.309719 16.020891 9.1367188 18.837891C9.1184314 18.88178 9.1040575 18.911582 9.0859375 18.955078C8.700008 18.31007 8.1022766 18 7.8652344 18C7.3442344 18 5.5749688 18.548781 5.4179688 18.675781C5.2609688 18.802781 5 20.007703 5 20.345703C5 20.683703 5.69375 20.978516 6.09375 20.978516C6.351767 20.978516 7.2951303 20.985984 8.1523438 20.992188C7.9649463 21.26747 7.5908106 21.64337 7.1875 22.029297C6.5505 22.640297 5.757625 23.400172 5.140625 24.326172C4.715625 24.965172 4 26.552 4 30C4 30.353 4.0132031 30.788 4.0332031 31.25L4 31.25L4 43C4 44.103 4.897 45 6 45L10 45C11.103 45 12 44.103 12 43L12 41.488281C15.162 41.763281 19.478 42 25 42C30.522 42 34.838 41.763281 38 41.488281L38 43C38 44.103 38.897 45 40 45L44 45C45.103 45 46 44.103 46 43L46 31.25L45.966797 31.25C45.986797 30.788 46 30.353 46 30C46 26.552 45.285375 24.965172 44.859375 24.326172L44.859375 24.324219C44.242375 23.399219 43.4495 22.640297 42.8125 22.029297C42.4093 21.643476 42.03447 21.266805 41.847656 20.992188C42.70487 20.985984 43.648233 20.978516 43.90625 20.978516C44.30625 20.978516 45 20.683703 45 20.345703C45 20.007703 44.739031 18.802781 44.582031 18.675781C44.425031 18.548781 42.655766 18 42.134766 18C41.897723 18 41.299992 18.31007 40.914062 18.955078C40.895936 18.911582 40.881569 18.88178 40.863281 18.837891C39.690281 16.020891 38.359187 12.825203 36.367188 11.783203C35.333188 11.243203 28.810422 11.061 24.982422 11 z M 24.984375 13C29.563375 13.074 34.744359 13.309641 35.443359 13.556641C36.676359 14.201641 37.852672 16.83 38.763672 19L11.236328 19C12.147328 16.83 13.320672 14.204125 14.513672 13.578125C15.257672 13.310125 20.438375 13.074 24.984375 13 z M 10.707031 20.259766C12.924031 21.605766 17.047344 26.772859 17.527344 27.380859C17.875344 27.776859 18.423953 28.023438 19.001953 28.023438L31.001953 28.023438C31.578953 28.023438 32.126859 27.774797 32.505859 27.341797C32.955859 26.770797 37.076969 21.605766 39.292969 20.259766C39.517969 20.795766 39.736453 21.302656 39.939453 21.722656C39.997453 21.842656 40.072391 21.958219 40.150391 22.074219C38.689391 23.067219 35.702969 26.521141 34.042969 28.619141C33.251969 29.525141 32.154 30.023437 31 30.023438L19 30.023438C17.846 30.023438 16.748281 29.526203 15.988281 28.658203C14.300281 26.524203 11.310609 23.067219 9.8496094 22.074219C9.9286094 21.958219 10.0045 21.842656 10.0625 21.722656C10.2645 21.302656 10.482031 20.795766 10.707031 20.259766 z M 8.0292969 25C9.0292969 24.995 9.7231562 26.173953 10.535156 26.501953C11.348156 26.829953 13.007 27.454313 13 28.195312C12.992 29.001313 10.289062 29.015625 10.289062 29.015625C5.9900625 29.080625 5.9980469 28.232422 5.9980469 28.232422C5.9980469 28.232422 6.0292969 25.011 8.0292969 25 z M 41.970703 25C43.970703 25.011 44.001953 28.232422 44.001953 28.232422C44.001953 28.232422 44.009938 29.080625 39.710938 29.015625C39.710938 29.015625 37.008 29.001313 37 28.195312C36.993 27.453312 38.651844 26.828953 39.464844 26.501953C40.277844 26.173953 40.970703 24.995 41.970703 25 z M 14.935547 33.001953C15.324328 32.97725 15.708531 33.182984 15.894531 33.552734C16.141531 34.046734 15.941266 34.647531 15.447266 34.894531C14.000266 35.617531 12.380672 36.001953 10.763672 36.001953L10.121094 36.001953C10.224094 36.477953 10.403031 36.990922 10.707031 37.294922C11.098031 37.685922 11.098031 38.316031 10.707031 38.707031C10.512031 38.902031 10.256 39.001953 10 39.001953C9.744 39.001953 9.4879688 38.902031 9.2929688 38.707031C8.0359688 37.450031 8 35.248953 8 35.001953L8 34.001953L10.763672 34.001953C12.072672 34.001953 13.382734 33.691469 14.552734 33.105469C14.676234 33.043469 14.805953 33.010188 14.935547 33.001953 z M 35.064453 33.001953C35.194 33.010266 35.324016 33.045422 35.447266 33.107422C36.617266 33.692422 37.927328 34.001953 39.236328 34.001953L42 34.001953L42 35.001953C42 35.248953 41.964031 37.451031 40.707031 38.707031C40.512031 38.902031 40.256 39.001953 40 39.001953C39.744 39.001953 39.487969 38.902031 39.292969 38.707031C38.901969 38.316031 38.901969 37.685922 39.292969 37.294922C39.596969 36.991922 39.775906 36.477953 39.878906 36.001953L39.236328 36.001953C37.619328 36.001953 35.999734 35.619484 34.552734 34.896484C34.058734 34.649484 33.858469 34.048687 34.105469 33.554688C34.291469 33.184188 34.675813 32.977016 35.064453 33.001953 z M 18.111328 37.001953L25.111328 37.001953L32.111328 37.001953C32.976328 37.001953 33.799141 37.374391 34.369141 38.025391L35.224609 39.001953L15 39.001953L15.853516 38.025391C16.423516 37.374391 17.246328 37.001953 18.111328 37.001953 z"/></svg>